<?xml version="1.0" encoding="UTF-8"?>
<!DOCTYPE svg PUBLIC "-//W3C//DTD SVG 1.1//EN" "http://www.w3.org/Graphics/SVG/1.1/DTD/svg11.dtd">
<svg version="1.1" xmlns="http://www.w3.org/2000/svg" xmlns:xlink="http://www.w3.org/1999/xlink" x="0" y="0" width="1200" height="792" viewBox="0, 0, 1200, 792">
  <g id="Layer_1">
    <g>
      <path d="M388.5,143.5 L835.5,432.5" fill-opacity="0" stroke="#777777" stroke-width="40" stroke-linecap="round" stroke-linejoin="bevel"/>
      <path d="M388.5,143.5 L388.5,504.5" fill-opacity="0" stroke="#777777" stroke-width="40" stroke-linecap="round" stroke-linejoin="bevel"/>
      <path d="M835.5,432.5 L835.5,216.5" fill-opacity="0" stroke="#777777" stroke-width="40" stroke-linecap="round" stroke-linejoin="bevel"/>
      <path d="M388.5,504.5 L616.5,357.5" fill-opacity="0" stroke="#777777" stroke-width="40" stroke-linecap="round" stroke-linejoin="bevel"/>
      <path d="M835.5,216.5 L719.5,292.5" fill-opacity="0" stroke="#777777" stroke-width="40" stroke-linecap="round" stroke-linejoin="bevel"/>
    </g>
  </g>
  <g id="Layer_2">
    <path d="M449.543,108.7 L460.8,108.7 C559.188,108.989 644.565,175.732 669.048,270.9 C690.685,211.227 748.021,173.095 810.8,172.3 C888.946,172.562 953.426,231.737 961.295,309.26 L976.353,288.763 C978.503,286.122 979.887,285.843 983.123,285.506 C984.825,285.6 986.159,286.144 987.537,287.053 C991.098,289.669 991.863,294.676 989.247,298.237 L961.466,336.05 C954.334,414.933 889.724,473.702 810.8,474.7 C748.45,474.779 690.518,434.745 669.048,376.1 C645.008,472.077 558.895,537.059 460.8,538.3 C341.811,536.833 252.083,447.774 246.101,329.647 L223.979,364.948 C221.633,368.692 216.696,369.825 212.952,367.479 C209.208,365.133 208.075,360.196 210.421,356.452 L247.722,296.93 C262.018,193.364 345.256,115.637 449.666,109.053 L449.543,108.7 z M460.819,124.7 L460.8,124.7 C362.55,124.835 273.533,200.309 263.467,299.465 L299.179,356.452 C301.525,360.196 300.392,365.133 296.648,367.479 C292.905,369.825 287.968,368.692 285.621,364.948 L262.049,327.333 C263.565,436.47 352.979,520.935 460.8,522.3 C570.594,522.3 659.6,433.294 659.6,323.5 C659.169,213.057 570.568,126.09 460.819,124.7 z M810.8,188.3 L810.8,188.3 C736.131,188.3 675.6,248.831 675.6,323.5 C675.6,398.169 736.131,458.7 810.8,458.7 C882.036,458.408 938.415,404.745 945.534,334.611 L919.49,298.15 C916.922,294.555 917.755,289.558 921.35,286.99 C922.765,285.918 924.06,285.802 925.784,285.502 L925.784,285.502 C928.595,285.569 930.778,286.667 932.51,288.85 L944.901,306.198 C935.411,238.319 879.247,189.166 810.8,188.3 z" fill="#777777" fill-opacity="0.203"/>
  </g>
</svg>
